<?xml version="1.0" encoding="UTF-8" standalone="no"?>
<!-- Created with Inkscape (http://www.inkscape.org/) -->

<svg
   width="100mm"
   height="100mm"
   viewBox="0 0 10000 10000"
   version="1.1"
   id="svg1"
   inkscape:version="1.4.1 (93de688d07, 2025-03-30)"
   sodipodi:docname="example_nicolai.svg"
   xml:space="preserve"
   xmlns:inkscape="http://www.inkscape.org/namespaces/inkscape"
   xmlns:sodipodi="http://sodipodi.sourceforge.net/DTD/sodipodi-0.dtd"
   xmlns="http://www.w3.org/2000/svg"
   xmlns:svg="http://www.w3.org/2000/svg"><sodipodi:namedview
     id="namedview1"
     pagecolor="#ffffff"
     bordercolor="#666666"
     borderopacity="1.0"
     inkscape:showpageshadow="2"
     inkscape:pageopacity="0.0"
     inkscape:pagecheckerboard="0"
     inkscape:deskcolor="#d1d1d1"
     inkscape:document-units="mm"
     inkscape:zoom="5.100163"
     inkscape:cx="195.18984"
     inkscape:cy="149.60306"
     inkscape:window-width="2560"
     inkscape:window-height="1368"
     inkscape:window-x="1920"
     inkscape:window-y="0"
     inkscape:window-maximized="1"
     inkscape:current-layer="layer4" /><defs
     id="defs1" /><g
     inkscape:label="Edge.Cuts"
     inkscape:groupmode="layer"
     id="layer1"
     style="display:inline;fill:#44aa00;stroke:#800080"><path
       fill="none"
       stroke="#000000"
       stroke-miterlimit="10"
       d="m 6440.7931,4550.8681 c 5.9473,-181.392 -68.3937,-359.8103 -199.2339,-484.7032 -20.8154,-20.8154 -38.6573,-38.6573 -65.42,-59.4728 l -59.4728,-44.6046 c 101.1037,-214.102 154.6292,-454.9668 154.6292,-698.8052 0,-205.1811 -38.6573,-410.3622 -115.9719,-603.6488 l 255.733,-758.2781 c 20.8155,-65.42 8.9209,-136.7874 -32.71,-193.2865 -41.631,-53.5255 -104.0774,-89.2092 -172.4711,-89.2092 -38.6573,0 -77.3147,11.8946 -112.9983,32.71 l -475.7823,297.364 C 5364.3356,1758.6208 5055.0771,1642.6488 4733.9241,1624.807 l -62.4465,-2.9737 -41.6309,-2.9736 -35.6837,5.9473 -62.4464,2.9736 c -324.1267,20.8155 -627.4379,133.8138 -880.1973,324.1267 l -481.7296,-297.3639 c -35.6836,-20.8155 -74.3409,-32.7101 -112.9983,-32.7101 -68.3937,0 -133.8137,32.7101 -175.4447,89.2092 -41.6309,56.4992 -53.5255,124.8929 -29.7364,193.2866 l 258.7067,755.3044 c -77.3147,190.3129 -115.972,392.5204 -115.972,606.6224 0,202.2075 35.6837,395.4941 110.0247,591.7543 l 20.8154,56.4991 11.8946,35.6837 5.9473,17.8418 -59.4728,44.6046 c -20.8155,14.8682 -47.5782,35.6837 -71.3673,65.4201 -124.8929,127.8665 -193.2866,297.3639 -193.2866,478.7559 v 142.7347 c 0,237.8912 193.2866,431.1777 431.1777,431.1777 h 121.9192 v 288.4431 c 0,228.9702 187.3393,416.3095 416.3095,416.3095 h 252.7594 c 187.3393,0 338.9949,-151.6556 338.9949,-338.9949 0,-68.3937 23.7891,-127.8665 71.3673,-175.4447 47.5783,-47.5783 107.051,-71.3674 175.4447,-71.3674 68.3938,0 127.8665,23.7891 175.4448,71.3674 47.5782,47.5782 71.3673,107.051 71.3673,175.4447 0,86.2355 32.71,166.5238 92.1828,234.9175 l 5.9473,5.9473 c 62.4464,62.4464 145.7083,98.1301 234.9175,98.1301 h 252.7594 c 228.9702,0 416.3095,-187.3393 416.3095,-416.3095 v -294.3903 h 118.9456 c 237.8911,0 431.1777,-193.2866 431.1777,-431.1778 z"
       id="path7"
       style="display:inline;stroke-width:29.7364;fill:#44aa00;stroke:#800080" /></g><g
     inkscape:groupmode="layer"
     id="layer2"
     inkscape:label="F.SilkS"
     style="display:inline"><circle
       cx="4629.8467"
       cy="3248.4141"
       r="336.02127"
       id="circle1"
       style="display:inline;stroke-width:29.7364;fill:#f9f9f9" /></g><g
     inkscape:groupmode="layer"
     id="layer3"
     inkscape:label="B.SilkS"
     style="display:inline"><path
       style="display:inline;font-weight:bold;font-size:300px;line-height:1.25;font-family:'Roboto Mono';-inkscape-font-specification:'Roboto Mono Bold';text-align:center;text-anchor:middle;stroke-width:26.4583"
       d="m 5458.1622,4989.2729 v -213.2812 h 40.7226 v 87.4512 h 60.3516 v -87.4512 h 40.8691 v 213.2812 h -40.8691 v -92.4316 h -60.3516 v 92.4316 z m -117.627,2.9297 q -22.998,0 -39.8437,-8.9355 -16.8457,-8.9356 -24.6094,-19.9219 l 20.3613,-21.9726 q 7.0313,9.082 18.3106,13.623 11.2793,4.541 23.291,4.541 8.4961,0 15.6738,-2.6367 7.1778,-2.6367 12.7442,-7.4707 5.4199,-4.6875 8.6425,-10.4004 3.2227,-5.8594 5.2735,-15.3809 v -0.4394 h -107.5195 v -17.2852 q 0,-17.4316 4.8339,-31.7871 4.834,-14.5019 14.0625,-24.7558 9.375,-10.2539 22.8516,-15.8203 13.3301,-5.7129 30.4687,-5.7129 16.5528,0 30.6153,6.0058 14.0625,6.0059 24.3164,16.8457 10.2539,10.8399 15.9668,25.9278 5.7129,14.9414 5.7129,33.1054 v 5.8594 q 0,15.9668 -5.7129,30.0293 -5.8594,13.916 -16.5527,24.1699 -10.6934,10.4004 -25.6348,16.4063 -14.9414,6.0058 -33.252,6.0058 z m 4.834,-131.3964 q -7.7637,0 -13.623,2.4902 -6.0059,2.3437 -10.1075,6.4453 -4.1015,4.248 -6.4453,9.9609 -2.3437,5.7129 -2.3437,12.1582 v 3.2227 h 66.7969 q -1.4649,-7.7637 -4.3946,-14.0625 -2.9297,-6.2988 -7.3242,-10.8398 -4.248,-4.5411 -9.9609,-6.8848 -5.7129,-2.4902 -12.5977,-2.4902 z m -116.4551,-96.5333 v 33.252 h -47.4609 v 158.6426 h 47.4609 v 33.1054 h -134.0332 v -33.1054 h 45.4102 v -191.8946 z m -180.0293,0 v 33.252 h -47.4609 v 158.6426 h 47.4609 v 33.1054 h -134.0332 v -33.1054 h 45.4102 v -191.8946 z m -165.9668,144.2872 v 3.0761 q 0,17.4317 -4.9804,32.2266 -4.9805,14.6484 -14.6485,25.4883 -9.5214,10.8398 -23.4375,16.9922 -14.0625,6.0058 -31.9336,6.0058 -17.7246,0 -31.6406,-6.0058 -13.916,-6.1524 -23.4375,-16.9922 -9.5215,-10.8399 -14.5019,-25.4883 -4.9805,-14.7949 -4.9805,-32.2266 v -3.0761 q 0,-17.2852 4.9805,-31.9336 4.9804,-14.795 14.5019,-25.6348 9.668,-10.8398 23.584,-16.9922 13.916,-6.1523 31.7871,-6.1523 17.8711,0 31.7871,6.1523 13.7696,6.1524 23.291,16.9922 9.668,10.8398 14.6485,25.6348 4.9804,14.6484 4.9804,31.9336 z m -40.7226,3.0761 v -3.0761 q 0,-9.668 -1.9043,-18.3106 -1.9043,-8.6426 -6.0059,-15.2344 -4.1015,-6.5918 -10.5468,-10.4004 -6.4454,-3.8085 -15.5274,-3.8085 -9.2285,0 -15.6738,3.8085 -6.4453,3.8086 -10.5469,10.4004 -3.9551,6.5918 -5.8594,15.2344 -1.9043,8.6426 -1.9043,18.3106 v 3.0761 q 0,9.961 1.9043,18.75 1.9043,8.6426 5.8594,15.0879 4.1016,6.5918 10.5469,10.4004 6.4453,3.8086 15.3808,3.8086 9.2286,0 15.8204,-3.8086 6.4453,-3.8086 10.5468,-10.4004 4.1016,-6.4453 6.0059,-15.0879 1.9043,-8.789 1.9043,-18.75 z m -337.3535,77.6367 h -37.2071 l -17.871,-115.1367 -1.6114,-10.8398 -1.6113,10.8398 -18.6035,115.1367 h -37.2071 l -29.5898,-213.2812 h 37.793 l 14.5019,119.5312 1.0254,8.9356 1.3184,-8.7891 17.8711,-119.6777 h 29.4433 l 16.8457,118.7988 1.3184,8.7891 1.0254,-8.3496 14.209,-119.2383 h 37.6465 z m -162.0117,-80.7128 v 3.0761 q 0,17.4317 -4.9805,32.2266 -4.9805,14.6484 -14.6484,25.4883 -9.5215,10.8398 -23.4375,16.9922 -14.0625,6.0058 -31.9336,6.0058 -17.7247,0 -31.6407,-6.0058 -13.916,-6.1524 -23.4375,-16.9922 -9.5215,-10.8399 -14.5019,-25.4883 -4.9805,-14.7949 -4.9805,-32.2266 v -3.0761 q 0,-17.2852 4.9805,-31.9336 4.9804,-14.795 14.5019,-25.6348 9.668,-10.8398 23.584,-16.9922 13.916,-6.1523 31.7871,-6.1523 17.8711,0 31.7871,6.1523 13.7696,6.1524 23.2911,16.9922 9.6679,10.8398 14.6484,25.6348 4.9805,14.6484 4.9805,31.9336 z m -40.7227,3.0761 v -3.0761 q 0,-9.668 -1.9043,-18.3106 -1.9043,-8.6426 -6.0059,-15.2344 -4.1015,-6.5918 -10.5468,-10.4004 -6.4453,-3.8085 -15.5274,-3.8085 -9.2285,0 -15.6738,3.8085 -6.4453,3.8086 -10.5469,10.4004 -3.9551,6.5918 -5.8594,15.2344 -1.9042,8.6426 -1.9042,18.3106 v 3.0761 q 0,9.961 1.9042,18.75 1.9043,8.6426 5.8594,15.0879 4.1016,6.5918 10.5469,10.4004 6.4453,3.8086 15.3809,3.8086 9.2285,0 15.8203,-3.8086 6.4453,-3.8086 10.5468,-10.4004 4.1016,-6.4453 6.0059,-15.0879 1.9043,-8.789 1.9043,-18.75 z m -258.6914,-83.789 q 15.9668,0 29.4434,7.7636 13.4765,7.6172 23.1445,21.0938 l 0.293,-3.5156 1.6113,-22.4121 h 37.9394 v 158.496 h -40.7226 v -95.2148 q -2.7832,-6.7383 -7.0313,-11.7187 -4.248,-4.9805 -10.2539,-8.2032 -4.9804,-2.7832 -11.2793,-4.1015 -6.4453,-1.4649 -14.3554,-1.4649 -7.6172,0 -15.9668,1.0254 -8.4961,0.8789 -16.5528,2.7832 l -6.0058,-40.5762 q 4.834,-1.4648 12.7441,-2.6367 7.7637,-1.3183 16.9922,-1.3183 z m -74.707,-63.5743 v 33.252 h -47.461 v 158.6426 h 47.461 v 33.1054 h -134.0332 v -33.1054 h 45.4101 v -191.8946 z m -167.2852,144.5801 v 3.0762 q 0,17.2852 -4.248,32.0801 -4.2481,14.6484 -12.3047,25.3418 -7.9102,10.6933 -19.336,16.8457 -11.5722,6.0058 -26.0742,6.0058 -13.3301,0 -23.4375,-5.1269 -10.1074,-5.127 -17.5781,-14.3555 l -2.0508,16.5527 h -36.7676 v -225 h 40.8692 v 80.7129 q 7.3242,-8.2031 16.8457,-12.5976 9.375,-4.541 21.8261,-4.541 14.795,0 26.3672,5.8593 11.4258,5.8594 19.4825,16.5528 8.0566,10.6933 12.3046,25.6347 4.1016,14.9414 4.1016,32.959 z m -40.7226,3.0762 v -3.0762 q 0,-9.9609 -1.7579,-18.6035 -1.7578,-8.7891 -5.5664,-15.3808 -3.8086,-6.4454 -9.8144,-10.1075 -6.1524,-3.8086 -14.7949,-3.8086 -10.4004,0 -17.2852,4.5411 -6.8848,4.3945 -10.9863,12.4511 v 64.1602 q 4.1015,7.9101 11.1328,12.4512 6.8848,4.541 17.4316,4.541 8.6426,0 14.6485,-3.6621 6.0058,-3.6622 9.8144,-10.1075 3.8086,-6.2988 5.5664,-14.7949 1.6114,-8.6426 1.6114,-18.6035 z"
       id="text8"
       aria-label="Hello World" /></g><g
     inkscape:groupmode="layer"
     id="layer4"
     inkscape:label="F.Cu"
     style="display:inline"><path
       d="m 5281.0737,3985.8767 294.3903,-133.8138 c 23.7891,-8.9209 50.5519,-8.9209 77.3146,0 l 276.5485,133.8138 c 5.9473,0 5.9473,5.9472 8.9209,5.9472 124.8929,-217.0756 193.2866,-469.835 193.2866,-743.4098 0,-315.2058 -98.1301,-603.6488 -258.7066,-850.4609 l -5.9473,5.9473 -264.6539,160.5765 32.71,199.2339 c 8.9209,50.5518 -26.7628,98.1301 -77.3146,107.051 -5.9473,0 -8.9209,0 -14.8682,0 -47.5782,0 -83.2619,-32.71 -92.1828,-77.3146 l -41.631,-258.7067 c -5.9473,-35.6836 8.9209,-74.341 41.631,-92.1828 l 300.3375,-190.3129 C 5501.123,1960.8282 5132.3917,1767.5417 4716.0822,1743.7526 v 338.9948 c 0,32.7101 -14.8682,59.4728 -41.6309,77.3147 l -217.0757,142.7347 c -14.8682,8.9209 -32.71,14.8682 -50.5519,14.8682 -26.7627,0 -59.4728,-14.8682 -77.3146,-41.631 -26.7627,-41.6309 -17.8418,-101.1037 26.7628,-127.8665 l 175.4447,-118.9456 v -285.4693 c -460.9141,26.7627 -868.3027,264.6539 -1127.0093,618.5169 5.9472,5.9473 14.8681,8.921 17.8418,14.8682 l 223.0229,243.8385 c 17.8419,17.8418 26.7628,50.5518 23.7892,77.3146 l -41.631,258.7066 c -8.9209,47.5783 -47.5782,77.3147 -92.1828,77.3147 -5.9473,0 -8.9209,0 -14.8682,0 -50.5519,-8.921 -83.2619,-56.4992 -77.3146,-107.0511 l 32.71,-217.0756 -169.4974,-190.313 c -118.9456,217.0757 -184.3657,460.9141 -184.3657,725.5681 0,193.2865 35.6837,374.6785 101.1037,544.176 v 0 l 306.2849,-118.9456 c 32.71,-14.8682 74.341,-5.9473 101.1037,23.7891 l 175.4448,181.392 c 35.6836,35.6837 35.6836,98.1301 0,127.8665 -17.8419,17.8418 -41.631,26.7628 -65.4201,26.7628 -23.7891,0 -47.5782,-8.921 -65.4201,-26.7628 l -133.8137,-139.7611 -240.8648,98.1301 c 240.8648,449.0196 701.7789,761.2517 1237.034,793.9618 v -264.6539 l -175.4448,-110.0247 c -41.6309,-26.7628 -56.4991,-83.2619 -26.7627,-127.8665 26.7627,-41.6309 83.2619,-56.4991 127.8665,-26.7627 l 217.0757,139.761 c 26.7627,17.8418 41.6309,47.5782 41.6309,77.3146 v 309.2585 c 451.9932,-26.7627 853.4345,-258.7066 1112.1411,-609.596 l -225.9966,-107.0511 -258.7066,115.972 c -14.8682,5.9472 -23.7891,8.9209 -35.6837,8.9209 -35.6836,0 -68.3937,-17.8418 -83.2619,-56.4992 -17.8418,-44.6046 5.9473,-101.1037 50.5519,-118.9455 z m -651.227,-50.5519 c -377.6522,0 -686.9107,-309.2585 -686.9107,-686.9107 0,-377.6522 309.2585,-689.8844 686.9107,-689.8844 377.6522,0 686.9107,309.2585 686.9107,686.9108 0,377.6522 -306.2849,689.8843 -686.9107,689.8843 z"
       id="path1"
       style="display:inline;fill:#ff9955;stroke-width:29.7364" /><path
       d="m 3508.7846,4512.2108 v 886.1446 c 0,157.6029 127.8665,285.4694 285.4694,285.4694 h 252.7594 c 115.9719,0 208.1547,-92.1829 208.1547,-208.1548 0,-107.051 41.631,-199.2338 110.0247,-267.6275 68.3937,-68.3938 160.5765,-110.0247 267.6275,-110.0247 107.051,0 199.2339,41.6309 267.6276,110.0247 68.3937,68.3937 110.0246,160.5765 110.0246,267.6275 0,56.4991 23.7891,107.051 59.4728,148.682 35.6837,35.6836 89.2092,59.4728 142.7347,59.4728 h 252.7594 c 157.6028,0 285.4693,-127.8665 285.4693,-285.4694 v -886.1446 c -300.3375,267.6276 -692.8579,428.2041 -1121.062,428.2041 -428.2041,0 -826.6718,-163.5502 -1121.0621,-428.2041 z"
       id="path2"
       style="display:inline;fill:#ff9955;stroke-width:29.7364" /><path
       d="M 3116.2642,4143.4796 C 3015.1605,4244.5833 2955.6877,4384.3443 2955.6877,4536 v 142.7346 c 0,166.5238 133.8138,300.3376 300.3376,300.3376 h 68.3937 v -660.1479 c -56.4992,-68.3937 -110.0247,-142.7347 -157.6029,-223.023 -17.8418,14.8682 -35.6837,29.7364 -50.5519,47.5783 z"
       id="path3"
       style="display:inline;fill:#ff9955;stroke-width:29.7364" /><path
       d="m 6146.4028,4143.4796 c -17.8419,-17.8419 -32.7101,-32.7101 -50.5519,-47.5783 -47.5782,77.3146 -98.1301,151.6556 -157.6029,223.023 v 657.1743 h 68.3937 c 166.5238,0 300.3376,-133.8138 300.3376,-300.3376 v -142.7347 c 5.9473,-154.6292 -59.4728,-294.3903 -160.5765,-389.5467 z"
       id="path4"
       style="display:inline;fill:#ff9955;stroke-width:29.7364" /><path
       d="m 6095.8509,2406.8741 190.3129,-559.0442 c 23.7891,-74.341 -56.4991,-139.761 -124.8928,-98.1301 l -401.4413,249.7857 c 130.8401,110.0247 243.8384,249.7858 336.0212,407.3886 z"
       id="path5"
       style="display:inline;fill:#ff9955;stroke-width:29.7364" /><path
       d="m 3166.8161,2406.8741 c 89.2092,-151.6556 202.2075,-291.4166 333.0476,-410.3622 l -401.4413,-249.7857 c -65.4201,-41.631 -148.682,23.7891 -124.8929,98.1301 z"
       id="path6"
       style="display:inline;fill:#ff9955;stroke-width:29.7364" /></g><g
     inkscape:groupmode="layer"
     id="layer5"
     inkscape:label="B.Cu"
     style="display:inline" /><g
     inkscape:groupmode="layer"
     id="layer6"
     inkscape:label="F.Mask"
     style="display:inline"><path
       d="m 5281.0737,3985.8767 294.3903,-133.8138 c 23.7891,-8.9209 50.5519,-8.9209 77.3146,0 l 276.5485,133.8138 c 5.9473,0 5.9473,5.9472 8.9209,5.9472 124.8929,-217.0756 193.2866,-469.835 193.2866,-743.4098 0,-315.2058 -98.1301,-603.6488 -258.7066,-850.4609 l -5.9473,5.9473 -264.6539,160.5765 32.71,199.2339 c 8.9209,50.5518 -26.7628,98.1301 -77.3146,107.051 -5.9473,0 -8.9209,0 -14.8682,0 -47.5782,0 -83.2619,-32.71 -92.1828,-77.3146 l -41.631,-258.7067 c -5.9473,-35.6836 8.9209,-74.341 41.631,-92.1828 l 300.3375,-190.3129 C 5501.123,1960.8282 5132.3917,1767.5417 4716.0822,1743.7526 v 338.9948 c 0,32.7101 -14.8682,59.4728 -41.6309,77.3147 l -217.0757,142.7347 c -14.8682,8.9209 -32.71,14.8682 -50.5519,14.8682 -26.7627,0 -59.4728,-14.8682 -77.3146,-41.631 -26.7627,-41.6309 -17.8418,-101.1037 26.7628,-127.8665 l 175.4447,-118.9456 v -285.4693 c -460.9141,26.7627 -868.3027,264.6539 -1127.0093,618.5169 5.9472,5.9473 14.8681,8.921 17.8418,14.8682 l 223.0229,243.8385 c 17.8419,17.8418 26.7628,50.5518 23.7892,77.3146 l -41.631,258.7066 c -8.9209,47.5783 -47.5782,77.3147 -92.1828,77.3147 -5.9473,0 -8.9209,0 -14.8682,0 -50.5519,-8.921 -83.2619,-56.4992 -77.3146,-107.0511 l 32.71,-217.0756 -169.4974,-190.313 c -118.9456,217.0757 -184.3657,460.9141 -184.3657,725.5681 0,193.2865 35.6837,374.6785 101.1037,544.176 v 0 l 306.2849,-118.9456 c 32.71,-14.8682 74.341,-5.9473 101.1037,23.7891 l 175.4448,181.392 c 35.6836,35.6837 35.6836,98.1301 0,127.8665 -17.8419,17.8418 -41.631,26.7628 -65.4201,26.7628 -23.7891,0 -47.5782,-8.921 -65.4201,-26.7628 l -133.8137,-139.7611 -240.8648,98.1301 c 240.8648,449.0196 701.7789,761.2517 1237.034,793.9618 v -264.6539 l -175.4448,-110.0247 c -41.6309,-26.7628 -56.4991,-83.2619 -26.7627,-127.8665 26.7627,-41.6309 83.2619,-56.4991 127.8665,-26.7627 l 217.0757,139.761 c 26.7627,17.8418 41.6309,47.5782 41.6309,77.3146 v 309.2585 c 451.9932,-26.7627 853.4345,-258.7066 1112.1411,-609.596 l -225.9966,-107.0511 -258.7066,115.972 c -14.8682,5.9472 -23.7891,8.9209 -35.6837,8.9209 -35.6836,0 -68.3937,-17.8418 -83.2619,-56.4992 -17.8418,-44.6046 5.9473,-101.1037 50.5519,-118.9455 z m -651.227,-50.5519 c -377.6522,0 -686.9107,-309.2585 -686.9107,-686.9107 0,-377.6522 309.2585,-689.8844 686.9107,-689.8844 377.6522,0 686.9107,309.2585 686.9107,686.9108 0,377.6522 -306.2849,689.8843 -686.9107,689.8843 z"
       id="path8"
       style="display:inline;fill:#800000;fill-opacity:0.302406;stroke-width:29.7364" /></g><g
     inkscape:groupmode="layer"
     id="layer7"
     inkscape:label="B.Mask"
     style="display:inline" /></svg>
