<?xml version="1.0" encoding="UTF-8" standalone="no"?>
<!-- Created with Inkscape (http://www.inkscape.org/) -->

<svg
   width="100mm"
   height="100mm"
   viewBox="0 0 10000 10000"
   version="1.1"
   id="svg1"
   inkscape:version="1.4.1 (93de688d07, 2025-03-30)"
   sodipodi:docname="example_smiley_mod.svg"
   xmlns:inkscape="http://www.inkscape.org/namespaces/inkscape"
   xmlns:sodipodi="http://sodipodi.sourceforge.net/DTD/sodipodi-0.dtd"
   xmlns="http://www.w3.org/2000/svg"
   xmlns:svg="http://www.w3.org/2000/svg">
  <sodipodi:namedview
     id="namedview1"
     pagecolor="#ffffff"
     bordercolor="#666666"
     borderopacity="1.0"
     inkscape:showpageshadow="2"
     inkscape:pageopacity="0.0"
     inkscape:pagecheckerboard="0"
     inkscape:deskcolor="#d1d1d1"
     inkscape:document-units="mm"
     inkscape:zoom="2.4303939"
     inkscape:cx="149.56424"
     inkscape:cy="153.47307"
     inkscape:window-width="2560"
     inkscape:window-height="1368"
     inkscape:window-x="1920"
     inkscape:window-y="0"
     inkscape:window-maximized="1"
     inkscape:current-layer="layer7" />
  <defs
     id="defs1" />
  <g
     inkscape:label="Edge.Cuts"
     inkscape:groupmode="layer"
     id="layer1"
     style="display:inline">
    <path
       id="path1"
       style="fill:#1aa41a;fill-opacity:1;stroke:#000000;stroke-width:14.5393;stroke-linecap:round;stroke-linejoin:round"
       d="M 7700.192,5056.8175 A 2894.9031,2894.9031 0 0 1 4805.2864,7951.7129 2894.9031,2894.9031 0 0 1 1910.3808,5056.8175 2894.9031,2894.9031 0 0 1 4805.2864,2161.9119 2894.9031,2894.9031 0 0 1 7700.192,5056.8175 Z" />
  </g>
  <g
     inkscape:groupmode="layer"
     id="layer2"
     inkscape:label="F.SilkS"
     style="display:inline">
    <path
       id="path2"
       style="fill:#ffffff;stroke-width:14.5393;stroke-linecap:round;stroke-linejoin:round"
       d="m 4100.5308,3950.8992 a 444.53574,444.53574 0 0 1 -444.5362,444.5361 444.53574,444.53574 0 0 1 -444.5357,-444.5361 444.53574,444.53574 0 0 1 444.5357,-444.5359 444.53574,444.53574 0 0 1 444.5362,444.5359 z" />
    <path
       id="circle2"
       style="fill:#ffffff;stroke-width:14.5393;stroke-linecap:round;stroke-linejoin:round"
       d="m 6269.0042,3950.8992 a 444.53574,444.53574 0 0 1 -444.5359,444.5361 444.53574,444.53574 0 0 1 -444.5359,-444.5361 444.53574,444.53574 0 0 1 444.5359,-444.5359 444.53574,444.53574 0 0 1 444.5359,444.5359 z" />
    <path
       d="m 4235.6882,7273.5239 v -120.1172 h -36.1328 v 300 h 36.1328 v -153.5156 q 3.9062,-6.25 8.789,-11.3281 5.0782,-5.2735 10.9375,-9.1797 7.4219,-5.0781 16.211,-7.8125 8.789,-2.7344 18.5547,-2.7344 11.914,-0.1953 21.0937,3.3203 9.1797,3.3203 15.2344,10.1563 5.6641,6.25 8.5937,15.8203 2.9297,9.375 2.9297,21.875 v 133.3984 h 36.1328 v -133.0078 q 0,-21.2891 -5.2734,-36.7187 -5.0781,-15.625 -14.6484,-25.7813 -9.5703,-10.1562 -23.2422,-14.8437 -13.4766,-4.8829 -30.0781,-4.8829 -12.6954,0.1954 -24.0235,3.711 -11.1328,3.5156 -20.5078,10.3515 -5.8594,4.1016 -11.1328,9.5704 -5.2734,5.2734 -9.5703,11.7187 z m 297.2656,183.7891 q 30.8594,0 51.7578,-12.3047 21.0938,-12.5 31.6406,-28.5156 l -22.0703,-17.1875 q -9.9609,12.8906 -25,20.7031 -15.039,7.8125 -34.375,7.8125 -14.6484,0 -26.7578,-5.4688 -12.1094,-5.4687 -20.7031,-15.039 -8.3984,-8.9844 -13.2813,-20.7032 -4.6875,-11.7187 -6.0546,-27.1484 v -1.3672 h 150.9765 v -16.2109 q 0,-22.0703 -5.664,-41.0156 -5.4688,-18.9454 -16.7969,-33.0079 -11.3281,-13.8671 -28.5156,-21.6796 -16.9922,-8.0079 -39.8438,-8.0079 -18.1641,0 -35.5469,7.4219 -17.1875,7.4219 -30.664,21.2891 -13.6719,14.0625 -21.875,34.375 -8.2032,20.1172 -8.2032,45.7031 v 8.2031 q 0,22.0703 7.4219,40.8203 7.4219,18.75 20.7031,32.4219 13.2813,13.6719 31.836,21.2891 18.75,7.6172 41.0156,7.6172 z m -4.6875,-189.4532 q 13.8672,0 23.8281,5.0782 10.1563,5.0781 16.7969,13.2812 6.6406,8.2031 10.3516,19.5313 3.7109,11.1328 3.7109,20.8984 v 1.7578 h -113.6719 q 2.1485,-14.6484 7.4219,-25.7812 5.4688,-11.3282 13.2813,-19.1407 7.8125,-7.6171 17.5781,-11.5234 9.7656,-4.1016 20.7031,-4.1016 z m 157.0313,-114.4531 v 31.4453 h 71.875 v 237.3047 h -71.875 v 31.25 h 176.9531 v -31.25 h -68.9453 v -268.75 z m 240.039,0 v 31.4453 h 71.875 v 237.3047 h -71.875 v 31.25 h 176.9531 v -31.25 h -68.9453 v -268.75 z m 224.2188,192.3828 v 4.2969 q 0,22.8516 6.6406,42.3828 6.6406,19.5313 19.1406,33.9844 12.3047,14.4531 30.0781,22.6562 17.9688,8.2032 40.4297,8.2032 22.2657,0 40.0391,-8.2032 17.7734,-8.2031 30.2734,-22.6562 12.3047,-14.4531 18.9453,-33.9844 6.6407,-19.5312 6.6407,-42.3828 v -4.2969 q 0,-22.8515 -6.6407,-42.3828 -6.6406,-19.7265 -18.9453,-34.1797 -12.5,-14.4531 -30.4687,-22.6562 -17.7735,-8.3985 -40.2344,-8.3985 -22.2656,0 -40.0391,8.3985 -17.7734,8.2031 -30.0781,22.6562 -12.5,14.4532 -19.1406,34.1797 -6.6406,19.5313 -6.6406,42.3828 z m 36.1328,4.2969 v -4.2969 q 0,-15.4297 3.7109,-29.4922 3.711,-14.2578 11.3281,-25 7.4219,-10.7421 18.5547,-16.9921 11.1328,-6.4454 26.1719,-6.4454 15.0391,0 26.1719,6.4454 11.3281,6.25 18.9453,16.9921 7.4219,10.7422 11.1328,25 3.9063,14.0625 3.9063,29.4922 v 4.2969 q 0,15.625 -3.711,29.8828 -3.7109,14.0625 -11.1328,24.8047 -7.6172,10.7422 -18.9453,16.9922 -11.1328,6.25 -25.9766,6.25 -15.039,0 -26.3672,-6.25 -11.3281,-6.25 -18.75,-16.9922 -7.6171,-10.7422 -11.3281,-24.8047 -3.7109,-14.2578 -3.7109,-29.8828 z"
       id="path3"
       style="font-size:400px;line-height:1.25;font-family:'Roboto Mono';-inkscape-font-specification:'Roboto Mono';text-align:center;text-anchor:middle;display:inline;fill:#ffffff;stroke-width:26.4583"
       aria-label="hello" />
  </g>
  <g
     inkscape:groupmode="layer"
     id="layer3"
     inkscape:label="B.SilkS"
     style="display:inline">
    <path
       d="m 5349.1558,2777.4248 v -120.1172 h 36.1328 v 300 h -36.1328 V 2803.792 q -3.9062,-6.25 -8.789,-11.3281 -5.0782,-5.2735 -10.9375,-9.1797 -7.4219,-5.0781 -16.211,-7.8125 -8.789,-2.7344 -18.5547,-2.7344 -11.914,-0.1953 -21.0937,3.3203 -9.1797,3.3203 -15.2344,10.1563 -5.6641,6.25 -8.5937,15.8203 -2.9297,9.375 -2.9297,21.875 v 133.3984 h -36.1328 v -133.0078 q 0,-21.2891 5.2734,-36.7187 5.0781,-15.625 14.6484,-25.7813 9.5703,-10.1562 23.2422,-14.8437 13.4766,-4.8829 30.0781,-4.8829 12.6954,0.1954 24.0235,3.711 11.1328,3.5156 20.5078,10.3515 5.8594,4.1016 11.1328,9.5704 5.2734,5.2734 9.5703,11.7187 z m -297.2656,183.7891 q -30.8594,0 -51.7578,-12.3047 -21.0938,-12.5 -31.6406,-28.5156 l 22.0703,-17.1875 q 9.9609,12.8906 25,20.7031 15.039,7.8125 34.375,7.8125 14.6484,0 26.7578,-5.4688 12.1094,-5.4687 20.7031,-15.039 8.3984,-8.9844 13.2813,-20.7032 4.6875,-11.7187 6.0546,-27.1484 v -1.3672 h -150.9765 v -16.2109 q 0,-22.0703 5.664,-41.0156 5.4688,-18.9454 16.7969,-33.0079 11.3281,-13.8671 28.5156,-21.6796 16.9922,-8.0079 39.8438,-8.0079 18.1641,0 35.5469,7.4219 17.1875,7.4219 30.664,21.2891 13.6719,14.0625 21.875,34.375 8.2032,20.1172 8.2032,45.7031 v 8.2031 q 0,22.0703 -7.4219,40.8203 -7.4219,18.75 -20.7031,32.4219 -13.2813,13.6719 -31.836,21.2891 -18.75,7.6172 -41.0156,7.6172 z m 4.6875,-189.4532 q -13.8672,0 -23.8281,5.0782 -10.1563,5.0781 -16.7969,13.2812 -6.6406,8.2031 -10.3516,19.5313 -3.7109,11.1328 -3.7109,20.8984 v 1.7578 h 113.6719 q -2.1485,-14.6484 -7.4219,-25.7812 -5.4688,-11.3282 -13.2813,-19.1407 -7.8125,-7.6171 -17.5781,-11.5234 -9.7656,-4.1016 -20.7031,-4.1016 z m -157.0313,-114.4531 v 31.4453 h -71.875 v 237.3047 h 71.875 v 31.25 h -176.9531 v -31.25 h 68.9453 v -268.75 z m -240.039,0 v 31.4453 h -71.875 v 237.3047 h 71.875 v 31.25 h -176.9531 v -31.25 h 68.9453 v -268.75 z m -224.2188,192.3828 v 4.2969 q 0,22.8516 -6.6406,42.3828 -6.6406,19.5313 -19.1406,33.9844 -12.3047,14.4531 -30.0781,22.6562 -17.9688,8.2032 -40.4297,8.2032 -22.2657,0 -40.0391,-8.2032 -17.7734,-8.2031 -30.2734,-22.6562 -12.3047,-14.4531 -18.9453,-33.9844 -6.6407,-19.5312 -6.6407,-42.3828 v -4.2969 q 0,-22.8515 6.6407,-42.3828 6.6406,-19.7265 18.9453,-34.1797 12.5,-14.4531 30.4687,-22.6562 17.7735,-8.3985 40.2344,-8.3985 22.2656,0 40.0391,8.3985 17.7734,8.2031 30.0781,22.6562 12.5,14.4532 19.1406,34.1797 6.6406,19.5313 6.6406,42.3828 z m -36.1328,4.2969 v -4.2969 q 0,-15.4297 -3.7109,-29.4922 -3.711,-14.2578 -11.3281,-25 -7.4219,-10.7421 -18.5547,-16.9921 -11.1328,-6.4454 -26.1719,-6.4454 -15.0391,0 -26.1719,6.4454 -11.3281,6.25 -18.9453,16.9921 -7.4219,10.7422 -11.1328,25 -3.9063,14.0625 -3.9063,29.4922 v 4.2969 q 0,15.625 3.711,29.8828 3.7109,14.0625 11.1328,24.8047 7.6172,10.7422 18.9453,16.9922 11.1328,6.25 25.9766,6.25 15.039,0 26.3672,-6.25 11.3281,-6.25 18.75,-16.9922 7.6171,-10.7422 11.3281,-24.8047 3.7109,-14.2578 3.7109,-29.8828 z"
       id="text1"
       style="font-size:400px;line-height:1.25;font-family:'Roboto Mono';-inkscape-font-specification:'Roboto Mono';text-align:center;text-anchor:middle;display:inline;fill:#ffffff;stroke-width:26.4583"
       aria-label="hello" />
  </g>
  <g
     inkscape:groupmode="layer"
     id="layer4"
     inkscape:label="F.Cu"
     style="display:inline">
    <path
       style="fill:#ff7f2a;fill-opacity:1;stroke:none;stroke-width:38.4683px;stroke-linecap:butt;stroke-linejoin:miter;stroke-opacity:1"
       d="m 3471.6784,5848.2995 c 0,0 -173.4728,975.8187 607.1658,1170.9784 780.6487,195.1596 2363.6331,-932.4452 2363.6331,-932.4452 z"
       id="path7" />
  </g>
  <g
     inkscape:groupmode="layer"
     id="layer5"
     inkscape:label="B.Cu"
     style="display:inline" />
  <g
     inkscape:groupmode="layer"
     id="layer6"
     inkscape:label="F.Mask"
     style="display:inline">
    <path
       id="path8"
       style="fill:#71c837;fill-opacity:0.785223;stroke:none;stroke-width:38.4683px;stroke-linecap:butt;stroke-linejoin:miter;stroke-opacity:1"
       d="m 3556.3894,5948.6208 c -27.0059,317.7406 39.9159,724.9181 345.8925,908.7332 313.5056,194.4029 699.8148,88.8337 1022.537,-24.1008 457.4968,-168.6546 897.0305,-417.1003 1310.2641,-685.8516 l -2676.9853,-214.9639 -1.023,7.8768 z"
       sodipodi:nodetypes="ccccccc" />
    <ellipse
       style="fill:#ffffff;fill-opacity:0.785223;stroke-width:10;stroke-linecap:round;stroke-linejoin:round"
       id="path4"
       cx="6825.7969"
       cy="5361.5713"
       rx="391.91177"
       ry="495.33292" />
    <ellipse
       style="fill:#ffffff;fill-opacity:0.785223;stroke-width:10;stroke-linecap:round;stroke-linejoin:round"
       id="ellipse4"
       cx="2634.5181"
       cy="5220.0474"
       rx="391.91177"
       ry="495.33292" />
  </g>
  <g
     inkscape:groupmode="layer"
     id="layer7"
     inkscape:label="B.Mask"
     style="display:inline">
    <ellipse
       style="display:inline;fill:#ffffff;fill-opacity:0.785223;stroke-width:10;stroke-linecap:round;stroke-linejoin:round"
       id="ellipse5"
       cx="6825.7969"
       cy="5361.5713"
       rx="391.91177"
       ry="495.33292" />
    <ellipse
       style="display:inline;fill:#ffffff;fill-opacity:0.785223;stroke-width:10;stroke-linecap:round;stroke-linejoin:round"
       id="ellipse6"
       cx="2634.5181"
       cy="5220.0474"
       rx="391.91177"
       ry="495.33292" />
  </g>
</svg>
