<?xml version="1.0" encoding="utf-8"?>
<!-- Generator: Adobe Illustrator 29.5.0, SVG Export Plug-In . SVG Version: 9.03 Build 0)  -->
<svg version="1.0" id="Ebene_1" xmlns="http://www.w3.org/2000/svg" xmlns:xlink="http://www.w3.org/1999/xlink" x="0px" y="0px"
	 viewBox="0 0 198.5 198.5" enable-background="new 0 0 198.5 198.5" xml:space="preserve">
<circle cx="99.2" cy="83.2" r="11.3"/>
<path d="M121.1,108l9.9-4.5c0.8-0.3,1.7-0.3,2.6,0l9.3,4.5c0.2,0,0.2,0.2,0.3,0.2c4.2-7.3,6.5-15.8,6.5-25c0-10.6-3.3-20.3-8.7-28.6
	l-0.2,0.2l-8.9,5.4l1.1,6.7c0.3,1.7-0.9,3.3-2.6,3.6c-0.2,0-0.3,0-0.5,0c-1.6,0-2.8-1.1-3.1-2.6l-1.4-8.7c-0.2-1.2,0.3-2.5,1.4-3.1
	l10.1-6.4c-8.4-9.8-20.8-16.3-34.8-17.1V44c0,1.1-0.5,2-1.4,2.6l-7.3,4.8c-0.5,0.3-1.1,0.5-1.7,0.5c-0.9,0-2-0.5-2.6-1.4
	c-0.9-1.4-0.6-3.4,0.9-4.3l5.9-4v-9.6c-15.5,0.9-29.2,8.9-37.9,20.8c0.2,0.2,0.5,0.3,0.6,0.5l7.5,8.2c0.6,0.6,0.9,1.7,0.8,2.6
	l-1.4,8.7c-0.3,1.6-1.6,2.6-3.1,2.6c-0.2,0-0.3,0-0.5,0c-1.7-0.3-2.8-1.9-2.6-3.6l1.1-7.3l-5.7-6.4c-4,7.3-6.2,15.5-6.2,24.4
	c0,6.5,1.2,12.6,3.4,18.3l0,0l10.3-4c1.1-0.5,2.5-0.2,3.4,0.8l5.9,6.1c1.2,1.2,1.2,3.3,0,4.3c-0.6,0.6-1.4,0.9-2.2,0.9
	c-0.8,0-1.6-0.3-2.2-0.9l-4.5-4.7l-8.1,3.3c8.1,15.1,23.6,25.6,41.6,26.7v-8.9l-5.9-3.7c-1.4-0.9-1.9-2.8-0.9-4.3
	c0.9-1.4,2.8-1.9,4.3-0.9l7.3,4.7c0.9,0.6,1.4,1.6,1.4,2.6v10.4c15.2-0.9,28.7-8.7,37.4-20.5l-7.6-3.6l-8.7,3.9
	c-0.5,0.2-0.8,0.3-1.2,0.3c-1.2,0-2.3-0.6-2.8-1.9C118.8,110.5,119.6,108.6,121.1,108z M99.2,106.3c-12.7,0-23.1-10.4-23.1-23.1
	S86.5,60,99.2,60s23.1,10.4,23.1,23.1S112,106.3,99.2,106.3z"/>
<path d="M61.5,125.7v29.8c0,5.3,4.3,9.6,9.6,9.6h8.5c3.9,0,7-3.1,7-7c0-3.6,1.4-6.7,3.7-9c2.3-2.3,5.4-3.7,9-3.7s6.7,1.4,9,3.7
	s3.7,5.4,3.7,9c0,1.9,0.8,3.6,2,5c1.2,1.2,3,2,4.8,2h8.5c5.3,0,9.6-4.3,9.6-9.6v-29.8c-10.1,9-23.3,14.4-37.7,14.4
	S71.4,134.6,61.5,125.7z"/>
<path d="M48.3,113.3c-3.4,3.4-5.4,8.1-5.4,13.2v4.8c0,5.6,4.5,10.1,10.1,10.1h2.3v-22.2c-1.9-2.3-3.7-4.8-5.3-7.5
	C49.4,112.2,48.8,112.7,48.3,113.3z"/>
<path d="M150.2,113.3c-0.6-0.6-1.1-1.1-1.7-1.6c-1.6,2.6-3.3,5.1-5.3,7.5v22.1h2.3c5.6,0,10.1-4.5,10.1-10.1v-4.8
	C155.8,121.2,153.6,116.5,150.2,113.3z"/>
<path d="M148.5,54.9l6.4-18.8c0.8-2.5-1.9-4.7-4.2-3.3l-13.5,8.4C141.6,44.9,145.4,49.6,148.5,54.9z"/>
<path d="M50,54.9c3-5.1,6.8-9.8,11.2-13.8l-13.5-8.4c-2.2-1.4-5,0.8-4.2,3.3L50,54.9z"/>
<path fill="none" stroke="#000000" stroke-miterlimit="10" d="M160.1,127c0.2-6.1-2.3-12.1-6.7-16.3c-0.7-0.7-1.3-1.3-2.2-2l-2-1.5
	c3.4-7.2,5.2-15.3,5.2-23.5c0-6.9-1.3-13.8-3.9-20.3l8.6-25.5c0.7-2.2,0.3-4.6-1.1-6.5c-1.4-1.8-3.5-3-5.8-3c-1.3,0-2.6,0.4-3.8,1.1
	l-16,10c-8.5-6.4-18.9-10.3-29.7-10.9l-2.1-0.1l-1.4-0.1L98,28.6l-2.1,0.1c-10.9,0.7-21.1,4.5-29.6,10.9l-16.2-10
	c-1.2-0.7-2.5-1.1-3.8-1.1c-2.3,0-4.5,1.1-5.9,3c-1.4,1.9-1.8,4.2-1,6.5l8.7,25.4c-2.6,6.4-3.9,13.2-3.9,20.4
	c0,6.8,1.2,13.3,3.7,19.9l0.7,1.9l0.4,1.2l0.2,0.6l-2,1.5c-0.7,0.5-1.6,1.2-2.4,2.2c-4.2,4.3-6.5,10-6.5,16.1v4.8
	c0,8,6.5,14.5,14.5,14.5h4.1v9.7c0,7.7,6.3,14,14,14h8.5c6.3,0,11.4-5.1,11.4-11.4c0-2.3,0.8-4.3,2.4-5.9c1.6-1.6,3.6-2.4,5.9-2.4
	c2.3,0,4.3,0.8,5.9,2.4c1.6,1.6,2.4,3.6,2.4,5.9c0,2.9,1.1,5.6,3.1,7.9l0.2,0.2c2.1,2.1,4.9,3.3,7.9,3.3h8.5c7.7,0,14-6.3,14-14
	v-9.9h4c8,0,14.5-6.5,14.5-14.5L160.1,127z"/>
</svg>
