%TF.GenerationSoftware,KiCad,Pcbnew,9.0.1*%
%TF.CreationDate,2025-05-08T10:03:42+02:00*%
%TF.ProjectId,smiley_example_pcb,736d696c-6579-45f6-9578-616d706c655f,rev?*%
%TF.SameCoordinates,Original*%
%TF.FileFunction,Legend,Bot*%
%TF.FilePolarity,Positive*%
%FSLAX46Y46*%
G04 Gerber Fmt 4.6, Leading zero omitted, Abs format (unit mm)*
G04 Created by KiCad (PCBNEW 9.0.1) date 2025-05-08 10:03:42*
%MOMM*%
%LPD*%
G01*
G04 APERTURE LIST*
%ADD10C,0.150000*%
%ADD11C,0.120000*%
G04 APERTURE END LIST*
D10*
X50760714Y-46991009D02*
X50617857Y-47038628D01*
X50617857Y-47038628D02*
X50570238Y-47086247D01*
X50570238Y-47086247D02*
X50522619Y-47181485D01*
X50522619Y-47181485D02*
X50522619Y-47324342D01*
X50522619Y-47324342D02*
X50570238Y-47419580D01*
X50570238Y-47419580D02*
X50617857Y-47467200D01*
X50617857Y-47467200D02*
X50713095Y-47514819D01*
X50713095Y-47514819D02*
X51094047Y-47514819D01*
X51094047Y-47514819D02*
X51094047Y-46514819D01*
X51094047Y-46514819D02*
X50760714Y-46514819D01*
X50760714Y-46514819D02*
X50665476Y-46562438D01*
X50665476Y-46562438D02*
X50617857Y-46610057D01*
X50617857Y-46610057D02*
X50570238Y-46705295D01*
X50570238Y-46705295D02*
X50570238Y-46800533D01*
X50570238Y-46800533D02*
X50617857Y-46895771D01*
X50617857Y-46895771D02*
X50665476Y-46943390D01*
X50665476Y-46943390D02*
X50760714Y-46991009D01*
X50760714Y-46991009D02*
X51094047Y-46991009D01*
X50236904Y-46514819D02*
X49665476Y-46514819D01*
X49951190Y-47514819D02*
X49951190Y-46514819D01*
X48808333Y-47514819D02*
X49379761Y-47514819D01*
X49094047Y-47514819D02*
X49094047Y-46514819D01*
X49094047Y-46514819D02*
X49189285Y-46657676D01*
X49189285Y-46657676D02*
X49284523Y-46752914D01*
X49284523Y-46752914D02*
X49379761Y-46800533D01*
X31813332Y-63747200D02*
X31670475Y-63794819D01*
X31670475Y-63794819D02*
X31432380Y-63794819D01*
X31432380Y-63794819D02*
X31337142Y-63747200D01*
X31337142Y-63747200D02*
X31289523Y-63699580D01*
X31289523Y-63699580D02*
X31241904Y-63604342D01*
X31241904Y-63604342D02*
X31241904Y-63509104D01*
X31241904Y-63509104D02*
X31289523Y-63413866D01*
X31289523Y-63413866D02*
X31337142Y-63366247D01*
X31337142Y-63366247D02*
X31432380Y-63318628D01*
X31432380Y-63318628D02*
X31622856Y-63271009D01*
X31622856Y-63271009D02*
X31718094Y-63223390D01*
X31718094Y-63223390D02*
X31765713Y-63175771D01*
X31765713Y-63175771D02*
X31813332Y-63080533D01*
X31813332Y-63080533D02*
X31813332Y-62985295D01*
X31813332Y-62985295D02*
X31765713Y-62890057D01*
X31765713Y-62890057D02*
X31718094Y-62842438D01*
X31718094Y-62842438D02*
X31622856Y-62794819D01*
X31622856Y-62794819D02*
X31384761Y-62794819D01*
X31384761Y-62794819D02*
X31241904Y-62842438D01*
X30908570Y-62794819D02*
X30670475Y-63794819D01*
X30670475Y-63794819D02*
X30479999Y-63080533D01*
X30479999Y-63080533D02*
X30289523Y-63794819D01*
X30289523Y-63794819D02*
X30051428Y-62794819D01*
X29146666Y-63794819D02*
X29718094Y-63794819D01*
X29432380Y-63794819D02*
X29432380Y-62794819D01*
X29432380Y-62794819D02*
X29527618Y-62937676D01*
X29527618Y-62937676D02*
X29622856Y-63032914D01*
X29622856Y-63032914D02*
X29718094Y-63080533D01*
D11*
%TO.C,BT1*%
X55975000Y-27010000D02*
G75*
G02*
X59300243Y-27971831I1310000J-1700000D01*
G01*
X40635000Y-27980000D02*
G75*
G02*
X43971646Y-26993470I2030000J-730001D01*
G01*
X60755000Y-31930000D02*
X59315000Y-27980000D01*
X60755000Y-32560000D02*
X60755000Y-31930000D01*
X60755000Y-41020000D02*
X60755000Y-38560000D01*
X58675000Y-43100000D02*
X60755000Y-41020000D01*
X58675000Y-43100000D02*
X55175000Y-43100000D01*
X44775000Y-43100000D02*
X41275000Y-43100000D01*
X41275000Y-43100000D02*
X39195000Y-41020000D01*
X39195000Y-31930000D02*
X40635000Y-27980000D01*
X39195000Y-32560000D02*
X39195000Y-31930000D01*
X39195000Y-41020000D02*
X39195000Y-38560000D01*
%TO.C,SW1*%
X29100000Y-62340000D02*
X30480000Y-62340000D01*
X29100000Y-60960000D02*
X29100000Y-62340000D01*
X29100000Y-59690000D02*
X29100000Y-57040000D01*
X29100000Y-59690000D02*
X31860000Y-59690000D01*
X29100000Y-57040000D02*
X31860000Y-57040000D01*
X31860000Y-59690000D02*
X31860000Y-57040000D01*
%TD*%
M02*
