%TF.GenerationSoftware,KiCad,Pcbnew,9.0.1*%
%TF.CreationDate,2025-05-08T10:03:42+02:00*%
%TF.ProjectId,smiley_example_pcb,736d696c-6579-45f6-9578-616d706c655f,rev?*%
%TF.SameCoordinates,Original*%
%TF.FileFunction,Soldermask,Top*%
%TF.FilePolarity,Negative*%
%FSLAX46Y46*%
G04 Gerber Fmt 4.6, Leading zero omitted, Abs format (unit mm)*
G04 Created by KiCad (PCBNEW 9.0.1) date 2025-05-08 10:03:42*
%MOMM*%
%LPD*%
G01*
G04 APERTURE LIST*
%ADD10C,0.000000*%
%ADD11R,1.700000X1.700000*%
%ADD12C,1.700000*%
%ADD13R,1.800000X1.800000*%
%ADD14C,1.800000*%
G04 APERTURE END LIST*
D10*
%TO.C,*%
G36*
X36300000Y-59375000D02*
G01*
X36624000Y-59416000D01*
X36926000Y-59449000D01*
X37247000Y-59476000D01*
X37627000Y-59501000D01*
X38107000Y-59527000D01*
X38390000Y-59540000D01*
X39626000Y-59640000D01*
X39790000Y-59660000D01*
X40550000Y-59740000D01*
X40670000Y-59750000D01*
X40803000Y-59758000D01*
X41048000Y-59771000D01*
X41360000Y-59786000D01*
X41450000Y-59790000D01*
X42018000Y-59820000D01*
X42501000Y-59856000D01*
X42975000Y-59905000D01*
X43180000Y-59930000D01*
X43560000Y-59973000D01*
X43929000Y-60006000D01*
X44341000Y-60033000D01*
X44853000Y-60058000D01*
X44920000Y-60061000D01*
X45370000Y-60083000D01*
X45750000Y-60111000D01*
X46149000Y-60151000D01*
X46400000Y-60181000D01*
X47143000Y-60258000D01*
X47880000Y-60307000D01*
X48150000Y-60319000D01*
X48434000Y-60332000D01*
X48663000Y-60343000D01*
X48770000Y-60350000D01*
X48932000Y-60363000D01*
X49150000Y-60381000D01*
X49393000Y-60405000D01*
X49693000Y-60438000D01*
X49800000Y-60452000D01*
X50453000Y-60520000D01*
X51156000Y-60567000D01*
X51420000Y-60579000D01*
X51926000Y-60605000D01*
X52400000Y-60637000D01*
X52790000Y-60672000D01*
X52940000Y-60690000D01*
X53414000Y-60748000D01*
X53898000Y-60793000D01*
X54449000Y-60829000D01*
X54870000Y-60851000D01*
X55371000Y-60878000D01*
X55813000Y-60908000D01*
X56159000Y-60939000D01*
X56330000Y-60960000D01*
X56787000Y-61016000D01*
X57378000Y-61067000D01*
X58078000Y-61108000D01*
X58340000Y-61121000D01*
X58905000Y-61152000D01*
X59414000Y-61193000D01*
X59740000Y-61230000D01*
X60326000Y-61298000D01*
X60943000Y-61348000D01*
X61514000Y-61376000D01*
X61744000Y-61380000D01*
X61949000Y-61382000D01*
X62049000Y-61392000D01*
X62100000Y-61417000D01*
X62113000Y-61428000D01*
X62154000Y-61529000D01*
X62040000Y-61638000D01*
X62013000Y-61654000D01*
X61872000Y-61743000D01*
X61833000Y-61773000D01*
X61711000Y-61850000D01*
X61630000Y-61891000D01*
X61474000Y-61984000D01*
X61420000Y-62030000D01*
X61288000Y-62128000D01*
X61220000Y-62164000D01*
X61051000Y-62261000D01*
X60996000Y-62302000D01*
X60838000Y-62407000D01*
X60776000Y-62438000D01*
X60631000Y-62524000D01*
X60590000Y-62560000D01*
X60471000Y-62646000D01*
X60388000Y-62690000D01*
X60207000Y-62793000D01*
X60138000Y-62843000D01*
X59994000Y-62937000D01*
X59943000Y-62959000D01*
X59807000Y-63036000D01*
X59761000Y-63073000D01*
X59610000Y-63177000D01*
X59508000Y-63230000D01*
X59341000Y-63324000D01*
X59270000Y-63378000D01*
X59123000Y-63477000D01*
X59074000Y-63500000D01*
X58905000Y-63591000D01*
X58849000Y-63630000D01*
X58676000Y-63734000D01*
X58615000Y-63760000D01*
X58451000Y-63846000D01*
X58405000Y-63881000D01*
X58261000Y-63973000D01*
X58162000Y-64019000D01*
X57976000Y-64119000D01*
X57939000Y-64151000D01*
X57805000Y-64243000D01*
X57764000Y-64260000D01*
X57569000Y-64348000D01*
X57458000Y-64430000D01*
X57325000Y-64512000D01*
X57243000Y-64549000D01*
X57069000Y-64637000D01*
X57005000Y-64682000D01*
X56847000Y-64780000D01*
X56775000Y-64812000D01*
X56610000Y-64895000D01*
X56556000Y-64933000D01*
X56256000Y-65099000D01*
X56132000Y-65165000D01*
X56067000Y-65212000D01*
X55794000Y-65349000D01*
X55537000Y-65474000D01*
X55533000Y-65477000D01*
X55256000Y-65610000D01*
X54990000Y-65733000D01*
X54976000Y-65743000D01*
X54745000Y-65860000D01*
X54706000Y-65873000D01*
X54431000Y-66010000D01*
X54257000Y-66108000D01*
X54156000Y-66140000D01*
X53925000Y-66235000D01*
X53884000Y-66263000D01*
X53703000Y-66372000D01*
X53550000Y-66418000D01*
X53362000Y-66508000D01*
X53329000Y-66531000D01*
X53186000Y-66619000D01*
X53130000Y-66641000D01*
X52914000Y-66712000D01*
X52768000Y-66798000D01*
X52536000Y-66914000D01*
X52492000Y-66929000D01*
X52203000Y-67068000D01*
X52066000Y-67150000D01*
X52013000Y-67170000D01*
X51709000Y-67287000D01*
X51656000Y-67325000D01*
X51483000Y-67422000D01*
X51381000Y-67455000D01*
X51080000Y-67591000D01*
X50910000Y-67681000D01*
X50755000Y-67727000D01*
X50457000Y-67839000D01*
X50418000Y-67861000D01*
X50158000Y-67971000D01*
X50106000Y-67983000D01*
X49904000Y-68045000D01*
X49823000Y-68082000D01*
X49635000Y-68181000D01*
X49495000Y-68233000D01*
X49389000Y-68259000D01*
X49167000Y-68330000D01*
X49054000Y-68379000D01*
X48818000Y-68470000D01*
X48668000Y-68503000D01*
X48480000Y-68545000D01*
X48283000Y-68611000D01*
X48039000Y-68711000D01*
X47863000Y-68764000D01*
X47779000Y-68780000D01*
X47610000Y-68812000D01*
X47453000Y-68863000D01*
X47308000Y-68922000D01*
X47039000Y-69011000D01*
X46878000Y-69049000D01*
X46594000Y-69123000D01*
X46462000Y-69171000D01*
X46288000Y-69235000D01*
X46081000Y-69280000D01*
X45785000Y-69319000D01*
X45684000Y-69330000D01*
X45287000Y-69390000D01*
X45114000Y-69428000D01*
X44868000Y-69487000D01*
X44653000Y-69523000D01*
X44398000Y-69546000D01*
X44160000Y-69560000D01*
X43842000Y-69577000D01*
X43527000Y-69595000D01*
X43429000Y-69601000D01*
X43242000Y-69611000D01*
X43087000Y-69616000D01*
X42917000Y-69614000D01*
X42684000Y-69606000D01*
X42342000Y-69590000D01*
X42320000Y-69589000D01*
X41831000Y-69561000D01*
X41463000Y-69525000D01*
X41176000Y-69477000D01*
X40930000Y-69411000D01*
X40868000Y-69390000D01*
X40705000Y-69338000D01*
X40629000Y-69320000D01*
X40451000Y-69282000D01*
X40210000Y-69187000D01*
X40175000Y-69170000D01*
X39979000Y-69083000D01*
X39861000Y-69040000D01*
X39626000Y-68915000D01*
X39387000Y-68784000D01*
X39380000Y-68781000D01*
X39179000Y-68679000D01*
X39154000Y-68659000D01*
X39009000Y-68558000D01*
X38943000Y-68522000D01*
X38784000Y-68422000D01*
X38733000Y-68381000D01*
X38592000Y-68278000D01*
X38560000Y-68261000D01*
X38427000Y-68169000D01*
X38360000Y-68109000D01*
X37995000Y-67761000D01*
X37811000Y-67590000D01*
X37571000Y-67357000D01*
X37383000Y-67149000D01*
X37289000Y-67017000D01*
X37207000Y-66900000D01*
X37176000Y-66864000D01*
X37075000Y-66716000D01*
X37038000Y-66644000D01*
X36942000Y-66482000D01*
X36898000Y-66428000D01*
X36779000Y-66246000D01*
X36759000Y-66201000D01*
X36671000Y-66025000D01*
X36628000Y-65957000D01*
X36530000Y-65765000D01*
X36500000Y-65678000D01*
X36436000Y-65510000D01*
X36395000Y-65434000D01*
X36304000Y-65282000D01*
X36241000Y-65072000D01*
X36240000Y-65066000D01*
X36147000Y-64795000D01*
X36111000Y-64719000D01*
X36026000Y-64517000D01*
X35980000Y-64322000D01*
X35922000Y-64076000D01*
X35868000Y-63903000D01*
X35795000Y-63677000D01*
X35747000Y-63445000D01*
X35711000Y-63160000D01*
X35681000Y-62914000D01*
X35652000Y-62710000D01*
X35650000Y-62700000D01*
X35560000Y-62107000D01*
X35519000Y-61720000D01*
X35506000Y-61454000D01*
X35498000Y-61091000D01*
X35496000Y-60685000D01*
X35500000Y-60293000D01*
X35510000Y-59971000D01*
X35519000Y-59830000D01*
X35554000Y-59571000D01*
X35622000Y-59416000D01*
X35757000Y-59344000D01*
X35988000Y-59339000D01*
X36300000Y-59375000D01*
G37*
%TD*%
D11*
%TO.C,SW1*%
X30480000Y-60960000D03*
D12*
X30480000Y-58420000D03*
%TD*%
D13*
%TO.C,D1*%
X48260000Y-50800000D03*
D14*
X45720000Y-50800000D03*
%TD*%
M02*
