%TF.GenerationSoftware,KiCad,Pcbnew,9.0.1*%
%TF.CreationDate,2025-05-08T10:03:43+02:00*%
%TF.ProjectId,smiley_example_pcb,736d696c-6579-45f6-9578-616d706c655f,rev?*%
%TF.SameCoordinates,Original*%
%TF.FileFunction,Profile,NP*%
%FSLAX46Y46*%
G04 Gerber Fmt 4.6, Leading zero omitted, Abs format (unit mm)*
G04 Created by KiCad (PCBNEW 9.0.1) date 2025-05-08 10:03:43*
%MOMM*%
%LPD*%
G01*
G04 APERTURE LIST*
%TA.AperFunction,Profile*%
%ADD10C,1.000000*%
%TD*%
G04 APERTURE END LIST*
D10*
X48811000Y-21629000D02*
X49567000Y-21659000D01*
X50320000Y-21708000D01*
X51071000Y-21777000D01*
X51817000Y-21865000D01*
X52560000Y-21972000D01*
X53299000Y-22098000D01*
X54033000Y-22243000D01*
X54763000Y-22407000D01*
X55487000Y-22590000D01*
X56205000Y-22791000D01*
X56918000Y-23010000D01*
X57625000Y-23247000D01*
X58325000Y-23503000D01*
X59018000Y-23776000D01*
X59704000Y-24067000D01*
X60382000Y-24376000D01*
X61052000Y-24702000D01*
X61714000Y-25045000D01*
X62367000Y-25406000D01*
X63011000Y-25783000D01*
X63646000Y-26177000D01*
X64271000Y-26589000D01*
X64886000Y-27016000D01*
X65491000Y-27460000D01*
X66085000Y-27921000D01*
X66667000Y-28397000D01*
X67239000Y-28890000D01*
X67798000Y-29398000D01*
X68346000Y-29922000D01*
X68523000Y-30098000D01*
X69052000Y-30641000D01*
X69566000Y-31197000D01*
X70064000Y-31764000D01*
X70545000Y-32343000D01*
X71011000Y-32934000D01*
X71460000Y-33535000D01*
X71894000Y-34146000D01*
X72310000Y-34768000D01*
X72710000Y-35400000D01*
X73093000Y-36041000D01*
X73459000Y-36691000D01*
X73808000Y-37350000D01*
X74140000Y-38018000D01*
X74454000Y-38693000D01*
X74751000Y-39377000D01*
X75030000Y-40067000D01*
X75292000Y-40765000D01*
X75535000Y-41470000D01*
X75760000Y-42180000D01*
X75967000Y-42897000D01*
X76156000Y-43620000D01*
X76326000Y-44347000D01*
X76477000Y-45080000D01*
X76610000Y-45817000D01*
X76723000Y-46559000D01*
X76817000Y-47304000D01*
X76893000Y-48053000D01*
X76948000Y-48806000D01*
X76984000Y-49561000D01*
X77001000Y-50318000D01*
X77002000Y-50568000D01*
X76992000Y-51325000D01*
X76963000Y-52077000D01*
X76915000Y-52824000D01*
X76849000Y-53565000D01*
X76763000Y-54302000D01*
X76660000Y-55032000D01*
X76538000Y-55757000D01*
X76399000Y-56475000D01*
X76242000Y-57187000D01*
X76067000Y-57892000D01*
X75876000Y-58590000D01*
X75668000Y-59281000D01*
X75443000Y-59965000D01*
X75201000Y-60641000D01*
X74944000Y-61309000D01*
X74670000Y-61970000D01*
X74381000Y-62621000D01*
X74076000Y-63265000D01*
X73757000Y-63899000D01*
X73422000Y-64525000D01*
X73072000Y-65141000D01*
X72708000Y-65747000D01*
X72330000Y-66344000D01*
X71937000Y-66931000D01*
X71531000Y-67508000D01*
X71111000Y-68074000D01*
X70678000Y-68630000D01*
X70232000Y-69174000D01*
X69772000Y-69708000D01*
X69301000Y-70230000D01*
X68817000Y-70740000D01*
X68320000Y-71239000D01*
X67812000Y-71725000D01*
X67292000Y-72199000D01*
X66761000Y-72661000D01*
X66218000Y-73110000D01*
X65665000Y-73545000D01*
X65101000Y-73968000D01*
X64526000Y-74376000D01*
X63941000Y-74772000D01*
X63346000Y-75153000D01*
X62741000Y-75519000D01*
X62127000Y-75872000D01*
X61503000Y-76209000D01*
X60870000Y-76532000D01*
X60229000Y-76840000D01*
X59578000Y-77132000D01*
X58920000Y-77408000D01*
X58253000Y-77669000D01*
X57578000Y-77913000D01*
X56896000Y-78142000D01*
X56206000Y-78353000D01*
X55509000Y-78548000D01*
X54806000Y-78725000D01*
X54095000Y-78886000D01*
X53378000Y-79028000D01*
X52655000Y-79153000D01*
X51925000Y-79260000D01*
X51190000Y-79349000D01*
X50449000Y-79419000D01*
X49703000Y-79471000D01*
X48952000Y-79503000D01*
X48197000Y-79517000D01*
X48053000Y-79517000D01*
X47296000Y-79507000D01*
X46544000Y-79478000D01*
X45797000Y-79431000D01*
X45056000Y-79364000D01*
X44319000Y-79279000D01*
X43589000Y-79175000D01*
X42864000Y-79053000D01*
X42146000Y-78914000D01*
X41434000Y-78757000D01*
X40729000Y-78583000D01*
X40031000Y-78391000D01*
X39340000Y-78183000D01*
X38656000Y-77958000D01*
X37980000Y-77717000D01*
X37312000Y-77459000D01*
X36652000Y-77185000D01*
X36000000Y-76896000D01*
X35356000Y-76592000D01*
X34722000Y-76272000D01*
X34097000Y-75937000D01*
X33480000Y-75587000D01*
X32874000Y-75223000D01*
X32277000Y-74845000D01*
X31690000Y-74452000D01*
X31113000Y-74046000D01*
X30547000Y-73626000D01*
X29991000Y-73193000D01*
X29447000Y-72747000D01*
X28913000Y-72288000D01*
X28391000Y-71816000D01*
X27881000Y-71332000D01*
X27382000Y-70836000D01*
X26896000Y-70327000D01*
X26422000Y-69808000D01*
X25960000Y-69276000D01*
X25511000Y-68734000D01*
X25076000Y-68180000D01*
X24653000Y-67616000D01*
X24245000Y-67041000D01*
X23849000Y-66456000D01*
X23468000Y-65861000D01*
X23102000Y-65256000D01*
X22749000Y-64642000D01*
X22412000Y-64018000D01*
X22089000Y-63386000D01*
X21781000Y-62744000D01*
X21489000Y-62094000D01*
X21213000Y-61435000D01*
X20952000Y-60768000D01*
X20708000Y-60094000D01*
X20479000Y-59411000D01*
X20268000Y-58722000D01*
X20073000Y-58025000D01*
X19896000Y-57321000D01*
X19735000Y-56610000D01*
X19593000Y-55893000D01*
X19468000Y-55170000D01*
X19361000Y-54441000D01*
X19272000Y-53705000D01*
X19202000Y-52965000D01*
X19150000Y-52219000D01*
X19118000Y-51468000D01*
X19104000Y-50712000D01*
X19104000Y-50568000D01*
X19114000Y-49810000D01*
X19143000Y-49054000D01*
X19193000Y-48301000D01*
X19261000Y-47551000D01*
X19349000Y-46804000D01*
X19457000Y-46061000D01*
X19583000Y-45322000D01*
X19728000Y-44588000D01*
X19892000Y-43859000D01*
X20074000Y-43134000D01*
X20275000Y-42416000D01*
X20495000Y-41703000D01*
X20732000Y-40996000D01*
X20987000Y-40296000D01*
X21261000Y-39603000D01*
X21552000Y-38917000D01*
X21860000Y-38239000D01*
X22186000Y-37569000D01*
X22530000Y-36907000D01*
X22890000Y-36254000D01*
X23268000Y-35610000D01*
X23662000Y-34975000D01*
X24073000Y-34350000D01*
X24501000Y-33735000D01*
X24945000Y-33130000D01*
X25405000Y-32536000D01*
X25882000Y-31954000D01*
X26374000Y-31382000D01*
X26883000Y-30823000D01*
X27407000Y-30275000D01*
X27583000Y-30098000D01*
X28126000Y-29569000D01*
X28682000Y-29055000D01*
X29249000Y-28558000D01*
X29828000Y-28076000D01*
X30418000Y-27610000D01*
X31019000Y-27161000D01*
X31631000Y-26727000D01*
X32253000Y-26311000D01*
X32885000Y-25911000D01*
X33526000Y-25528000D01*
X34176000Y-25162000D01*
X34835000Y-24813000D01*
X35503000Y-24481000D01*
X36178000Y-24167000D01*
X36861000Y-23870000D01*
X37552000Y-23591000D01*
X38250000Y-23329000D01*
X38954000Y-23086000D01*
X39665000Y-22861000D01*
X40382000Y-22654000D01*
X41104000Y-22465000D01*
X41832000Y-22295000D01*
X42565000Y-22144000D01*
X43302000Y-22011000D01*
X44044000Y-21898000D01*
X44789000Y-21804000D01*
X45538000Y-21728000D01*
X46290000Y-21673000D01*
X47046000Y-21637000D01*
X47803000Y-21620000D01*
X48053000Y-21619000D01*
X48811000Y-21629000D01*
M02*
