%TF.GenerationSoftware,KiCad,Pcbnew,9.0.1*%
%TF.CreationDate,2025-05-08T10:03:44+02:00*%
%TF.ProjectId,smiley_example_pcb,736d696c-6579-45f6-9578-616d706c655f,rev?*%
%TF.SameCoordinates,Original*%
%TF.FileFunction,Other,User*%
%FSLAX46Y46*%
G04 Gerber Fmt 4.6, Leading zero omitted, Abs format (unit mm)*
G04 Created by KiCad (PCBNEW 9.0.1) date 2025-05-08 10:03:44*
%MOMM*%
%LPD*%
G01*
G04 APERTURE LIST*
%ADD10C,0.050000*%
G04 APERTURE END LIST*
D10*
%TO.C,BT1*%
X55935000Y-26920000D02*
G75*
G02*
X59390144Y-27938659I1350000J-1790000D01*
G01*
X44015000Y-26920000D02*
G75*
G02*
X55920368Y-26909925I5960000J-8640001D01*
G01*
X40545000Y-27940000D02*
G75*
G02*
X44018035Y-26905396I2120000J-770000D01*
G01*
X57175000Y-43200000D02*
G75*
G02*
X42775454Y-43200427I-7200000J7640003D01*
G01*
X61845000Y-32770000D02*
X61845000Y-38350000D01*
X61845000Y-38350000D02*
X60855000Y-38350000D01*
X60855000Y-31920000D02*
X60855000Y-32770000D01*
X60855000Y-32770000D02*
X61845000Y-32770000D01*
X60855000Y-38350000D02*
X60855000Y-41060000D01*
X60855000Y-41060000D02*
X58715000Y-43200000D01*
X59405000Y-27930000D02*
X60855000Y-31920000D01*
X58715000Y-43200000D02*
X57175000Y-43200000D01*
X42775000Y-43200000D02*
X41235000Y-43200000D01*
X41235000Y-43200000D02*
X39095000Y-41060000D01*
X39095000Y-31920000D02*
X40535000Y-27940000D01*
X39095000Y-32770000D02*
X39095000Y-31920000D01*
X39095000Y-38350000D02*
X38105000Y-38350000D01*
X39095000Y-41060000D02*
X39095000Y-38350000D01*
X38105000Y-32770000D02*
X39095000Y-32770000D01*
X38105000Y-38350000D02*
X38105000Y-32770000D01*
%TO.C,SW1*%
X28710000Y-62730000D02*
X28710000Y-56640000D01*
X28710000Y-56640000D02*
X32250000Y-56640000D01*
X32250000Y-62730000D02*
X28710000Y-62730000D01*
X32250000Y-56640000D02*
X32250000Y-62730000D01*
%TD*%
M02*
